<svg id="Layer_1" xmlns="http://www.w3.org/2000/svg" viewBox="0 0 2524.4 1400"><style>.st0{fill:#4d0d4f}.st1{fill:#872b87}.st3{fill:#6b1869}.st4{fill:#876484}.st5{fill:#af97ae}.st9{fill:none;stroke:#2f2f2f;stroke-width:1.75;stroke-linecap:round;stroke-linejoin:bevel}</style><g id="Layer_2_1_"><g id="Layer_1-2"><path class="st0" d="M1260.3 1348.8V16.8h2c8.9 0 17.8 0 26.7.1 6-7.8 16.4-11.6 31.6-11.6h2.4c2.9.1 27.8.9 33.2 3.4 6.3-2.8 17.7-7.7 38-7.7 3.3 0 6.7.1 10.2.4 1.8.1 43.9 3.3 50.8 7.5 4.3 2.6 8.6 7.5 11.5 11.2 32.9 1 65.9 2.4 98.3 3.9 3.8-4.5 11-9.4 33.6-11.7 3.5-.4 8-.6 13.4-.6 15.4 0 36.1 1.6 48.2 3.7 9.2 1.6 17.3 10.2 21.4 15.4 10.2.7 20.7 1.4 31.3 2.2 3.7-3.5 10.2-5.6 20.3-6.7 2.5-.3 5.1-.4 7.7-.3 11.1 0 22.2 1 33.1 3 5.3 1.1 10.1 5.9 13.3 9.9 20.2 1.8 40.8 3.7 61.2 5.7 2.5-2.5 7.5-5.8 21.8-6.8 1-.1 2.2-.1 3.4-.1 11.4 0 29.3 2.6 38.3 5 5 1.3 9.5 6 12.4 9.9 26.5 3 53.1 6.2 79.2 9.6 3.2-3.2 9.6-7.2 27.7-7.8h1.7c13.5 0 38.3 4.5 50.7 8.3 4.9 1.5 9.8 5.8 14.6 12.7 142.6 21.3 250.3 44.4 315.6 60.1 70.9 17 108.4 29.1 108.8 29.2l.7.2v1184H1260.3z"/><path class="st1" d="M1394.3 2c3.2 0 6.5.1 10.1.4 0 0 43.6 3.3 50.4 7.4 4.5 2.7 9 8.1 11.5 11.3 33.8 1.1 66.9 2.4 99.3 4 3.5-4.4 10.4-9.4 33.3-11.8 3.6-.4 8.2-.6 13.3-.6 15.8 0 36.4 1.6 48 3.7 9 1.6 17 10.1 21.1 15.4 10.8.7 21.6 1.5 32.2 2.3 2.7-2.7 7.9-5.4 20-6.8 2.5-.2 5-.4 7.5-.3 11 .1 22 1.1 32.9 3 5.2 1.1 10 6 13 9.9 21.1 1.8 41.8 3.8 62.1 5.8 2.7-3 7.9-5.9 21.5-6.8 1-.1 2.1-.1 3.4-.1 10.8 0 28.7 2.5 38 4.9 4.8 1.3 9.1 5.9 12.1 9.9 27.6 3.1 54.3 6.4 80.1 9.7 3.5-3.8 10.2-7.3 27.3-7.9h1.6c13.3 0 38 4.4 50.4 8.3 5.7 1.8 10.8 7.5 14.4 12.7 276.3 41.3 424.7 89.3 424.7 89.3v1183.2H1261.3V17.8h1c9.1 0 18.2 0 27.2.1 4.8-6.5 13.7-11.6 31.1-11.6h2.4s28.5.8 33.1 3.4l.1.1c7.3-3.3 18.4-7.8 38.1-7.8m-59.7 16.2c-3-.4-5.6-.7-7.3-.9-.7-.1-1.6-.1-2.6-.1-3.5 0-8.6.3-13.5.7 7.8.2 15.6.2 23.4.3m81.3 1.4c-2.2-.4-4.2-.7-5.7-.9-3.7-.4-7.5-.5-11.2-.5-6.5 0-14.3.2-21 .5 12.7.4 25.3.6 37.9.9M1394.3 0c-20.1 0-31.6 4.8-38 7.6-6.3-2.4-28.6-3.2-33.2-3.3h-2.4c-15.3 0-25.9 3.8-32.1 11.6-9.9 0-18.3-.1-26.2-.1h-3v1333h1265.1V164.1l-1.4-.4c-.4-.1-38-12.2-108.9-29.2-65.3-15.6-172.9-38.7-315.3-60-4.9-6.9-9.9-11.2-14.9-12.8-12.4-3.9-37.4-8.3-51-8.3h-1.7c-17.8.6-24.6 4.5-28 7.8-25.8-3.3-52.1-6.5-78.3-9.5-4.2-5.5-8.5-8.8-12.7-9.9-9-2.4-27.1-5-38.5-5-1.3 0-2.4 0-3.5.1-11.2.7-18.1 2.8-22.2 6.7-20-2-40.3-3.8-60.3-5.6-3.3-4.1-8.2-8.8-13.6-10-11-2-22.1-3-33.3-3.1-2.6 0-5.2.1-7.8.3-10.1 1.1-16.7 3.2-20.6 6.7-10.4-.8-20.7-1.5-30.4-2.2-4.3-5.3-12.4-13.8-21.8-15.4-12.1-2.1-32.8-3.7-48.3-3.7-4.5 0-9 .1-13.5.6-22.4 2.3-30 7.1-34 11.7-32.1-1.5-64.8-2.9-97.4-3.9-3-3.7-7.2-8.4-11.5-11-7-4.2-46.7-7.3-51.3-7.6-3.3-.3-6.8-.4-10-.4z"/><path d="M1261.8 17.8c-35.9 0-71.6.4-106.9 1.2-2.5-2-5.4-3.4-8.6-4-11.3-1.6-33.7-1.8-44.3.1-8.8 1.7-14.1 3.7-17.5 5.9-12.4.5-24.8.9-37.2 1.5-.9-.6-1.8-1.1-2.7-1.5-7-3.4-49.5-1.8-49.5-1.8-17.4.7-28.7 4.3-36.6 8-18.3 1.1-36.5 2.3-54.5 3.5-1.4-.7-3-1.3-4.5-1.7-12.8-3.1-32.3-2.4-44.2 2.7-2.7 1.1-4.8 2.2-6.7 3.2-8.8.7-17.6 1.4-26.4 2.2l-11.6 1c-15.1 1.3-30.1 2.7-45 4.1-1.8-1.1-3.8-2-5.8-2.6-6.7-2.1-45.7 2.2-45.7 2.2-16.4 1.9-26.7 5.5-33.8 9l-18.7 2.1c-2.9-1.9-6.2-3-9.6-3.3-13.5-.8-40 1-52.3 4.3-10.5 2.8-16.7 5.9-20.4 8.8-15.7 2-31.2 4-46.4 6-2.7-1.6-5.8-2.6-9-2.7-10.7.2-31.6 3.2-41.1 6.6-3.6 1.2-7.1 2.8-10.5 4.6-6.2.9-12.3 1.8-18.4 2.7l-11.3 1.7c-8.5 1.3-16.9 2.5-25.1 3.8-3.1-1.1-6.5-1.4-9.8-.9-3.4.4-6.6 1.8-9.3 3.8C155.7 126.3 2 165.6 2 165.6v1183.3h1238.3c0-.1 21.9-1331.4 21.5-1331.1z" fill="none" stroke="#872b87" stroke-width="4" stroke-miterlimit="10"/><path class="st0" d="M599.6 53.8c12.3-3.3 38.9-5.1 52.3-4.3 11.7.7 24.2 16.2 24.2 16.2l-12.5 4.4s-30.3.3-39.7.9-41.5 8-41.5 8c-3.4-1.8-7-3.3-10.6-4.6 2.4-5.3 1.5-13.5 27.8-20.6zM855.2 31.6c11.9-5 31.4-5.8 44.2-2.7 8.6 2.1 18.5 12.4 18.5 12.4l-9.5 3.4s-23.1.2-30.3.7-31.6 6.1-31.6 6.1c-2.6-1.4-5.3-2.5-8.1-3.5 1.8-4.1-2.3-8.3 16.8-16.4z"/><path class="st3" d="M2 165.6v1183.3h1259.3V17.8C579.5 18 2 165.6 2 165.6z"/><path class="st3" d="M2522.4 165.6S2065.5 17.8 1262.3 17.8h-5l-1.8 1331h1266.9V165.6z"/><path class="st3" d="M0 1161.8h2525V1400H0z"/><path class="st4" d="M441.1 59.2l2.8 46.8 11.4-.7-2.8-47.4z"/><ellipse transform="rotate(-66.052 858.537 602.934)" class="st0" cx="858.6" cy="602.9" rx="5" ry="8.9"/><path class="st0" d="M892.2 587.8s21.2 18.1 55 16.6 53.7-9.6 68.4-20.5-.9-12.5-5.6-9.1-45.9 15.8-63.7 13.1-44.2-8.7-53-13-11 6-1.1 12.9zM910.1 521.3s17.6-17.9 43.3-17.7 40.4 7 50.9 16.7-1.6 11.8-5 8.8-34-13.2-47.8-9.9-34.5 9.9-41.6 14.3-7.9-5.3.2-12.2z"/><path class="st0" d="M888.6 595.1c9 5.8 23 12.7 32.5 14.7s29.4 3.1 36 1.3 23.7-2.8 23.7-2.8-15.3 7.6-23.6 8.3-34.8 3.1-42.6.5-33.6-18.5-35.4-21.2-8.6-12-7.5-12 16.9 11.2 16.9 11.2z"/><path class="st0" d="M967.2 622c10.6-1.7 25.6-6 33.9-10.8s23.9-17.3 27.6-23.1 15.8-18 15.8-18-6.3 15.9-11.9 22-23.8 25.6-31.3 28.9-37.4 8.8-40.5 7.9-14.4-3.1-13.6-3.9 20-3 20-3z"/><ellipse transform="matrix(.00785 -1 1 .00785 465.6 1279.69)" class="st0" cx="877.7" cy="405.2" rx="3.9" ry="7.3"/><ellipse transform="rotate(-71.639 804.52 450.662)" class="st0" cx="804.5" cy="450.7" rx="3.1" ry="5.8"/><path class="st0" d="M825.8 440.1s14.5 10.3 36.3 8 34.4-8 43.5-15.3-1.1-7.6-4-5.3-29.1 11.5-40.8 10.5-29-3.6-34.9-5.9-6.9 4.2-.1 8zM834.5 398.6s10.7-11.6 27.3-12.6 26.5 2.7 33.7 8.2-.5 7.3-2.8 5.6-22.6-6.7-31.4-4.2-22 7.5-26.3 10.4-5.5-2.8-.5-7.4z"/><path class="st0" d="M823.7 444.8c6.1 3.2 15.5 6.9 21.7 7.7s19.2.7 23.4-.6 15.2-2.7 15.2-2.7-9.6 5.3-14.9 6.1-22.4 3.3-27.6 2-22.6-10-23.9-11.6-6.1-7-5.4-7 11.5 6.1 11.5 6.1z"/><path class="st0" d="M875.8 458.1c6.8-1.5 16.3-4.7 21.5-8s14.8-11.6 16.9-15.3 9.4-11.6 9.4-11.6-3.4 10-6.8 14-14.3 16.6-19.1 19-23.8 6.8-25.9 6.4-9.5-1.4-9-1.9 13-2.6 13-2.6z"/><ellipse transform="rotate(-85.78 2365.463 419.88) scale(1.00001)" class="st0" cx="2365.5" cy="419.9" rx="3.8" ry="6.7"/><ellipse transform="rotate(-66.052 2296.063 459.43)" class="st0" cx="2296.1" cy="459.4" rx="3" ry="5.3"/><path class="st0" d="M2316 450.4s12.6 10.7 32.6 9.9 31.8-5.7 40.5-12.1-.5-7.4-3.3-5.4-27.2 9.4-37.8 7.7-26.2-5.2-31.4-7.7-6.5 3.5-.6 7.6zM2326.6 411s10.4-10.6 25.7-10.5 23.9 4.1 30.1 9.9-.9 7-2.9 5.2-20.1-7.8-28.3-5.9-20.5 5.9-24.6 8.5-4.8-3.1 0-7.2z"/><path class="st0" d="M2313.8 454.7c5.3 3.5 13.6 7.5 19.2 8.7s17.4 1.9 21.3.8 14.1-1.7 14.1-1.7-9.1 4.5-14 5-20.6 1.8-25.2.3-19.9-11-21-12.6-5.1-7.1-4.4-7.1 10 6.6 10 6.6z"/><path class="st0" d="M2360.4 470.7c6.3-1 15.2-3.5 20.1-6.4s14.2-10.3 16.4-13.7 9.3-10.6 9.3-10.6-3.7 9.4-7.1 13-14.1 15.1-18.6 17.1-22.2 5.2-24 4.7-8.5-1.9-8-2.3 11.9-1.8 11.9-1.8z"/><path class="st3" d="M714 41.7s39-4.3 45.7-2.3 14.4 8.6 14.4 8.6l-12.5 4.4s-30.3.3-39.7.9-41.5 8-41.5 8c-3.4-1.8-7-3.3-10.6-4.6 6.7-4 17.2-11.9 44.2-15z"/><path class="st0" d="M678.8 75.9s24.3 9.7 48.2 4.7 36.2-11.4 44-21.8-3.8-9.9-6.3-6.6-26.4 14.3-39.9 15.9c-17.1 2.1-36.6-.2-44-2.7s-6.4 7-2 10.5zM715.7 47s30.8-3.6 35.8-2.6c3.8.9 7.5 2 11.1 3.3l-11.3 4s-23 1.7-30.1 2.5-31.8 7.2-31.8 7.2c-2.6-1-5.2-1.8-7.8-2.5 5.3-2.9 13.5-8.6 34.1-11.9z"/><path class="st3" d="M396.2 137.4s37.9-5.5 44.3-2.9 13.9 10.9 13.9 10.9l-12.1 5.6s-29.3.4-38.5 1.1-40.2 10.1-40.2 10.1-6.3-4.3-10.3-5.8c6.6-5 16.7-15.1 42.9-19z"/><path class="st0" d="M362.1 180.9s23.8 10.7 47 4.3 34.9-12.8 42.5-26.1-3.7-12.6-6.1-8.4-25.6 18.1-38.7 20.2c-16.6 2.6-35.5-.3-42.7-3.4s-6.3 8.9-2 13.4zM399.9 143.3s30.6-4.1 35.5-2.8c3 .9 5.8 2.4 8 4.6l-10.9 5s-22.2 2.1-29.2 3.2-30.8 9.2-30.8 9.2c-2.4-1.3-5-2.3-7.6-3.1 5.1-3.8 15.1-11.9 35-16.1z"/><path class="st3" d="M500.5 143.4s21.5-3.1 25.2-1.8 8 5.6 8 5.6l-6.8 3s-16.7.4-21.9.8-22.8 5.6-22.8 5.6c-1.9-1.2-3.9-2.2-5.9-3 3.7-2.7 9.4-8 24.2-10.2z"/><path class="st0" d="M480.6 165.9s13.5 6.3 26.7 2.8 19.8-7.8 24-14.7c-2.8-5.2-1.9-.9-2.5-3.9-1.4 2.2-14.4 9.6-21.8 10.8-9.4 1.5-20.2.1-24.3-1.5-.2 6.1-1.8.1-2.1 6.5z"/><path class="st0" d="M501.6 146.9s17-2.6 19.7-1.9c2 .6 3.9 1.4 5.6 2.5l-7 3.9s-11.2 1.2-15.1 1.8-14.4 4.7-14.4 4.7c-2.4-1-4.9-2-7.4-2.8 2.8-2.1 7.3-5.9 18.6-8.2z"/><path class="st3" d="M215 317.7s21.5-3.9 25.2-2.2 8 7 8 7l-6.8 3.7s-16.7.5-21.9 1-22.8 6.9-22.8 6.9c-1.8-1.4-3.8-2.7-5.9-3.7 3.7-3.4 9.4-9.9 24.2-12.7z"/><path class="st0" d="M195.1 345.6s13.6 7.8 26.7 3.5 19.8-9.7 24-18.3c-2.8-6.5-1.9-1.1-2.6-4.9-1.4 2.7-14.4 11.9-21.8 13.4-9.4 1.9-20.2.1-24.3-1.9-.2 7.8-1.8.4-2 8.2z"/><path class="st0" d="M216.1 322.1s16.9-3.2 19.7-2.4c2 .7 3.9 1.7 5.6 3l-7 4.8s-11.2 1.5-15.1 2.3-14.4 5.8-14.4 5.8c-2.4-1.3-4.9-2.5-7.4-3.5 2.8-2.4 7.3-7.1 18.6-10z"/><path class="st3" d="M995.1 19.2s42.5-1.6 49.5 1.8 14.7 12.8 14.7 12.8l-13.9 4.5s-32.7-2.8-42.9-3-45.5 6-45.5 6-6.7-5.1-11-7.1c7.6-4.6 19.6-13.8 49.1-15z"/><path class="st0" d="M953.9 60.2s25.3 15.3 51.6 11.2 40.1-11.1 49.6-23.9-3.2-13.3-6.2-9.3-29.8 15.9-44.6 16.6c-18.6.9-39.5-4.1-47.2-8.1s-7.6 8.5-3.2 13.5zM996.4 26.3s33.6-1.5 38.9.4c4 1.5 7.9 3.4 11.7 5.5l-12.6 4s-24.9-.2-32.7.1-34.9 6.1-34.9 6.1c-2.6-1.6-5.4-2.9-8.2-4 5.9-3.4 15.3-9.9 37.8-12.1zM524.8 430.8s40.3 17.6 74.9 10.1c38.2-8.3 53.6-19.3 65.8-39 15.4-24.9-.5-25.9-4.6-17.6s-40.6 36.4-61.9 39c-27 3.2-58.8-4.7-70.3-12.1s-10.7 9.7-3.9 19.6zM584 364s48.7-5.4 56.5-2 17.3 10.2 17.3 10.2l-18 9s-36.2 1.3-47.5 2.6-50.3 14.8-50.3 14.8-7.4-5.6-12.2-7.6c8.4-7.1 21.6-20.9 54.2-27z"/><ellipse transform="rotate(-8.291 825.606 136.56)" class="st0" cx="825.7" cy="136.6" rx="24.8" ry="11.6"/><ellipse transform="rotate(-3.252 884.608 188.264) scale(1.00001)" class="st0" cx="884.6" cy="188.2" rx="14.4" ry="6.8"/><ellipse transform="rotate(-8.291 653.266 266.447)" class="st0" cx="653.3" cy="266.5" rx="19.5" ry="9.1"/><ellipse transform="rotate(-8.291 226.802 237.378)" class="st0" cx="226.8" cy="237.4" rx="14.8" ry="6.9"/><ellipse transform="rotate(-8.291 268.117 205.28)" class="st0" cx="268.1" cy="205.3" rx="14.8" ry="6.9"/><ellipse transform="rotate(-5.651 287.356 201.477) scale(.99996)" class="st0" cx="287.4" cy="201.5" rx="8.7" ry="6.4"/><ellipse transform="scale(.99998) rotate(-2.4 430.955 285.443)" class="st0" cx="431" cy="285.4" rx="16.3" ry="7.7"/><ellipse transform="matrix(.9993 -.03612 .03612 .9993 -10.584 38.226)" class="st0" cx="1052.6" cy="312" rx="18.4" ry="8.6"/><ellipse class="st0" cx="1023.2" cy="219.6" rx="18.4" ry="8.6"/><path class="st0" d="M1118.3 228.9c27.3-.6 50 10.2 52.3 24.5.6-1.8.9-3.6.9-5.5-.3-15.3-23.8-27.2-52.5-26.6s-51.6 13.6-51.3 28.9c0 .7.1 1.4.2 2.1 4.5-12.8 25.3-22.8 50.4-23.4z"/><ellipse transform="rotate(-8.448 826.572 237.874)" class="st0" cx="826.3" cy="237.8" rx="13.7" ry="6.4"/><ellipse transform="rotate(-6.174 685.396 272.137)" class="st0" cx="685.5" cy="272.2" rx="10.8" ry="5.1"/><ellipse transform="rotate(-6.174 680.654 414.8)" class="st0" cx="680.8" cy="414.8" rx="9.8" ry="7.5"/><ellipse transform="rotate(-6.174 600.536 540.931)" class="st0" cx="600.7" cy="541" rx="9.8" ry="6.7"/><ellipse transform="rotate(-6.174 626.354 283.333)" class="st0" cx="626.5" cy="283.4" rx="10.8" ry="5.1"/><ellipse transform="rotate(-11.735 710.224 118.768)" class="st0" cx="710.3" cy="118.9" rx="15.8" ry="7.4"/><ellipse transform="rotate(-2.418 671.379 109.143) scale(.99999)" class="st0" cx="671.4" cy="109.2" rx="9.5" ry="3.9"/><ellipse transform="rotate(-12.419 577.75 105.472)" class="st0" cx="577.8" cy="105.5" rx="7.2" ry="3"/><ellipse transform="rotate(-11.735 537.843 129.283)" class="st0" cx="537.9" cy="129.4" rx="12.8" ry="6"/><ellipse transform="rotate(-11.536 480.559 101.101)" class="st0" cx="480.7" cy="101.1" rx="12.8" ry="6"/><ellipse transform="rotate(-11.735 776.6 92.299)" class="st0" cx="776.7" cy="92.4" rx="12.5" ry="5.9"/><ellipse transform="rotate(-2.772 945.185 79.786) scale(.99997)" class="st0" cx="945.2" cy="79.8" rx="12.5" ry="5.9"/><ellipse transform="rotate(-2.772 1104.864 64.433) scale(.99997)" class="st0" cx="1104.9" cy="64.4" rx="10.1" ry="4.8"/><ellipse transform="rotate(-2.772 1175.629 131.555) scale(.99997)" class="st0" cx="1175.7" cy="131.5" rx="8.3" ry="3.9"/><ellipse transform="rotate(-2.772 1274.658 121.564) scale(.99997)" class="st0" cx="1274.7" cy="121.5" rx="8.3" ry="3.9"/><ellipse transform="rotate(-2.772 1318.369 128.255) scale(.99997)" class="st0" cx="1318.4" cy="128.2" rx="8.3" ry="3.9"/><ellipse transform="rotate(-2.772 967.221 189.99) scale(.99997)" class="st0" cx="967.3" cy="190" rx="12.5" ry="5.9"/><ellipse transform="rotate(-8.048 283.072 354.34)" class="st0" cx="283" cy="354.3" rx="24.8" ry="11.6"/><ellipse transform="matrix(.9992 -.03891 .03891 .9992 -12.6 12.059)" class="st0" cx="303.5" cy="329.7" rx="13.1" ry="6"/><ellipse transform="rotate(-3.252 343.255 404.59) scale(1.00001)" class="st0" cx="343.3" cy="404.6" rx="14.4" ry="6.8"/><ellipse transform="rotate(-2.772 425.89 406.303) scale(.99997)" class="st0" cx="425.9" cy="406.3" rx="12.5" ry="5.9"/><path class="st0" d="M677.4 202.2s18.8 8.1 44.9 3.9 40.6-10.7 50.7-18.2-2.2-6.9-5.5-4.5-33.7 13.4-48 13.6-35.5-.5-42.9-2.1-7.7 4.4.8 7.3zM683 163.2s11.5-11.8 31.5-14.2 32.3-.1 41.7 4.4.2 6.8-2.8 5.4-28.1-4.1-38.5-.8-25.6 9-30.6 12.1-6.8-2.3-1.3-6.9zM405.9 595.1s19.9 4.8 44.9-3.6 38.2-17.2 47-26.4-3.4-6.4-6.2-3.6-31 18.8-45 21.4-35.1 5.3-42.6 5-7 5.7 1.9 7.2zM405 555.7s9.4-13.5 28.7-19.2 31.9-5.4 41.8-2.6 1.3 6.6-1.9 5.8-28.4.7-38.1 5.5-23.8 13.1-28.1 17-7-1-2.4-6.5zM192.2 478s19.9 4.9 44.9-3.6 38.2-17.2 47-26.4-3.4-6.4-6.2-3.6-31 18.8-45 21.4-35.1 5.3-42.6 5-7 5.7 1.9 7.2zM191.2 438.5s9.4-13.5 28.7-19.2 31.9-5.4 41.8-2.6c10 2.8 1.3 6.6-1.9 5.8s-28.4.6-38.1 5.5-23.8 13.1-28.1 17-7-1-2.4-6.5zM897.9 279.7s15.5 10.1 38.8 8.2 36.6-7.4 46.2-14.3-1.2-7.4-4.3-5.2-30.9 10.8-43.4 9.7-31-3.8-37.2-6.1-7.3 3.9-.1 7.7zM907 239.6c8.1-7.2 18.3-11.4 29.1-11.9 17.8-.7 28.2 2.9 35.9 8.4s-.5 7.1-3 5.4-24.1-6.8-33.5-4.4-23.4 7-28 9.8-5.8-2.9-.5-7.3z"/><path class="st3" d="M1102 15.2c10.6-2 33-1.7 44.3-.1 9.8 1.3 19.3 15.3 19.3 15.3l-10.8 2.9s-25.5-1.8-33.4-1.9-35.4 4-35.4 4c-2.7-1.7-5.6-3.3-8.6-4.6 2.3-4.4 2-11.4 24.6-15.6zM482.6 72.5c9.6-3.4 30.4-6.4 41.1-6.6 9.3-.2 20.1 11.4 20.1 11.4l-9.6 4.2s-23.9 2-31.3 3.1-32.3 8.8-32.3 8.8c-2.8-1.2-5.7-2.2-8.7-3 1.6-4.2.4-10.7 20.7-17.9z"/><path class="st0" d="M1029.1 153.4s-6.9-8.9-4-16.2 41.2-18.3 58.3-17.4c24.3 1.3 50.2 3.5 56.9 11.4s7 21 1.2 24.6-25.4 8.4-25.4 8.4 19.8-9.4 21.6-12.1 1.1-15.2-3-16.8-36.2-5.6-52.3-4.8c-23.6 1.1-42.9 4.9-47.9 9.9s-5.4 13-5.4 13zM254.1 298.7s-10.2-9.4-7.6-18.6 46.5-26.1 72.8-30.8c30.9-5.5 63.8-5.9 73.7 2.3s12.2 23.7 5.4 28.9-31.2 14.6-31.2 14.6 24.6-16.5 27.2-19.5c4.3-5-5.3-19.9-11-20.7-14.7-2-43.6-1.6-64 2.3-30 5.7-57.9 16.1-63.7 23s-1.6 18.5-1.6 18.5zM485.5 275.9s-5.2-5.6-3.8-10.7 26.6-15 38.3-15.5c16.5-.7 34.1-.9 39.2 4s6.1 13.8 2.4 16.5-16.6 7.3-16.6 7.3 12.8-7.6 13.8-9.5-.2-10.4-3.2-11.2-24.8-1.4-35.7.1c-15.8 2.3-28.6 6.1-31.8 9.8s-2.6 9.2-2.6 9.2zM1097.8 106s-3.8-5.7-1.8-10 25.6-9.4 35.9-8.1c14.6 1.8 30.1 4.2 33.9 9.2s3.3 13-.3 14.9-15.7 4-15.7 4 12.3-4.8 13.5-6.4 1.3-9.1-1.2-10.3-21.6-4.8-31.4-5c-14.3-.3-26.1 1.2-29.3 4s-3.6 7.7-3.6 7.7zM357.5 187.8c6.2 2.9 15.9 6.2 22.2 6.9s19.7.7 24-.6 15.6-2.4 15.6-2.4-9.8 4.7-15.3 5.5-23 3-28.3 1.8-23.2-9-24.5-10.4-6.2-6.3-5.5-6.3 11.8 5.5 11.8 5.5z"/><path class="st0" d="M410.9 199.9c7-1.3 16.8-4.2 22.1-7.2s15.2-10.4 17.4-13.8 9.7-10.5 9.7-10.5-3.5 9-7 12.6-14.7 15-19.5 17.1-24.5 6.2-26.6 5.8-9.7-1.2-9.2-1.7 13.1-2.3 13.1-2.3zM384 370.8s23.2-11.4 35.5-11.4c14.8-6.3 35.9-11 46.1-10.1 17.8-7.6 44.4-12.7 51.5-11.8 14.8-3.8 38-8.9 50.7-10.1-11.4-2.1-43.1 3-50.7 5.9-12.2.4-44 5.9-51.5 11-14.8 1.7-38 5.5-44.4 10.6-15.2 3.2-33.4 14.2-37.2 15.9zM270.5 159.1s19.5-10.7 29.8-10.7c12.4-6 30.1-10.3 38.6-9.5 14.9-7.1 37.2-11.9 43.2-11.1 12.4-3.6 31.9-8.3 42.5-9.5-9.6-2-36.1 2.8-42.5 5.6-10.3.4-36.8 5.6-43.2 10.3-12.4 1.6-31.9 5.2-37.2 9.9-12.8 3.1-28 13.4-31.2 15zM420.1 373s23.6-10.6 35.9-10.2c15-5.8 36.3-9.7 46.4-8.5 18-7 44.8-11.1 51.9-10 14.9-3.3 38.3-7.5 51-8.4-11.3-2.5-43.2 1.5-50.9 4.1-12.3 0-44.1 4.4-51.9 9.2-14.8 1.2-38.2 4.2-44.7 9-15.3 2.9-33.9 13.2-37.7 14.8zM966.3 360.1s23.8-6.5 35.2-3.9c15-3.2 35.5-3.4 44.7-.3 18-3.9 43.7-3.2 50.1-.9 14.5-.7 37-.8 49 .6-10.2-4.6-40.6-6.2-48.2-4.9-11.4-2.2-41.9-3.4-50 0-14-1.5-36.3-2.6-43.2 1.1-14.7.3-33.7 7.4-37.6 8.3zM627.3 574.1s23.8-6.5 35.2-3.9c15-3.2 35.5-3.3 44.7-.3 18-3.8 43.7-3.2 50.1-.9 14.5-.7 37-.8 49 .7-10.2-4.6-40.5-6.2-48.2-4.9-11.5-2.2-41.9-3.4-50 0-14-1.5-36.3-2.6-43.2 1.1-14.7.2-33.7 7.3-37.6 8.2zM895.4 124.6s19.8-10.3 30.2-10c12.6-5.7 30.6-9.6 39.2-8.5 15.1-6.8 37.8-10.9 43.9-10 12.6-3.2 32.4-7.5 43.2-8.4-9.7-2.3-36.7 1.7-43.2 4.3-10.4.1-37.4 4.5-43.9 9.2-12.6 1.2-32.4 4.3-37.8 8.9-12.9 2.9-28.3 12.9-31.6 14.5zM946.9 371.9s24-5.6 35.3-2.5c15.1-2.6 35.6-2 44.7 1.4 18.1-3.2 43.7-1.6 50.1 1 14.5-.1 37 .6 49 2.5-10-4.9-40.3-7.8-48-6.7-11.4-2.6-41.8-5-49.9-1.9-14-2-36.2-4-43.2-.5-14.9-.5-34.1 5.9-38 6.7zM419.7 343.1s17-5.4 25.7-5.4c10-2.6 19.8-5.4 26.7-5.1 10.3-2.6 16.7-3.9 24.9-3.6-9.5-1.5-19-1.3-25.2 1-13.4 1.3-20.3 2.8-26.5 4.9-9.1.7-21.5 5.3-25.6 8.2zM625.3 583s17.7-1.9 26.3-.2c10.3-.5 20.5-1.4 27.2.3 10.6-.5 17.1-.5 25.2 1.4-9-3.4-18.4-5-24.9-4-13.4-1.4-20.5-1.3-26.9-.5-9.2-1-22.3 1-26.9 3zM721.1 295s25.4-2.6 37.4.2c14.8-.6 29.3-1.7 38.8.9 15.1-.5 24.5-.4 35.7 2.7-12.6-5.4-25.8-8.1-35.2-6.6-18.9-2.4-29.1-2.3-38.3-1.2-13-1.9-31.7 1.1-38.4 4zM779.2 383.6s21.2-14.1 33.2-17.2c12.8-7.4 25.1-15.1 34.8-17.2 13.1-7.5 21.5-11.7 32.9-14.3-13.7 1.1-26.6 4.8-34.2 10.5-17.9 6.7-26.8 11.5-34.5 16.7-12.5 4.4-27.7 15.8-32.2 21.5zM818.8 373.5s23.2-10.6 35.5-11.8c13.8-5.3 27.2-11 37-11.5 14.2-5.3 23-8.2 34.7-8.9-13.7-1.1-27.1.5-35.5 4.9-18.6 3.7-28.2 7.1-36.6 11-12.9 2.6-29.7 11.4-35.1 16.3zM362.8 119.2s17.2-4.7 25.9-4.4c10.1-2.2 20-4.6 26.9-4.1 10.4-2.2 16.9-3.2 25.1-2.6-9.4-1.9-19-2-25.2 0-13.4.8-20.4 2-26.6 3.8-9.4.5-21.9 4.7-26.1 7.3z"/><path class="st1" d="M538.5 81.6s17.3-4.3 26-3.8c10.2-2 20.1-4.2 27-3.5 10.4-1.9 16.9-2.8 25.1-2.1-9.4-2.1-18.9-2.5-25.2-.5-13.4.4-20.4 1.6-26.7 3.2-9.3.2-21.9 4.1-26.2 6.7zM823.3 94.2s17.4-3.9 26.1-3.1c10.2-1.7 20.2-3.6 27.1-2.8 10.5-1.7 17-2.4 25.2-1.4-9.3-2.4-18.8-3-25.2-1.2-13.4.1-20.5 1-26.8 2.5-9.3 0-22 3.5-26.4 6zM1126.4 32.2s19.2-2.6 28.7-1.2c11.2-1 22.2-2.2 29.7-.8 11.5-.9 18.7-1.2 27.6.4-10.1-3-20.4-4.3-27.5-3-14.7-.9-22.4-.4-29.4.6-10.2-.8-24.2 1.8-29.1 4zM1176.9 49.2s25.8-2.3 38.7-.7c15.2-.7 30-1.8 40.2-.2 15.5-.7 25.2-.8 37.3 1-13.9-3.3-28-4.7-37.4-3.6-20-1.2-30.4-.9-39.8 0-13.7-.9-32.5 1.4-39 3.5z"/><path class="st0" d="M853.4 107s17.3-4 26.1-3.3c10.2-1.8 20.2-3.8 27-3 10.5-1.7 17-2.5 25.1-1.6-9.3-2.3-18.8-2.8-25.2-1-13.4.2-20.5 1.2-26.8 2.7-9.2.1-21.9 3.7-26.2 6.2zM577.3 116.2s-9.9-1.4-13-4.1 6.4-11.8 14-13.9 31.7-5.8 36.2-5.1 11.2 2.5 12.6 5.9c4.6-2.5 13.8-7.9 20.5-8.6 5.9-.5 12.4 1.1 12.2 3.1s-3 6-5.6 7.4c5.8-2 10.6-5.4 8.8-8.2s-8.4-7.2-16.8-6.5-13 2.8-17.3 5.8c-4.2-5.2-10.1-5.8-15.7-5.5s-26.9 1.8-38.5 6.2-17.6 16.4-15.2 20 12.1 3.2 17.8 3.5zM591.8 117.3s18.6-4 26.8-7.6c-7.5 9.1-17.5 9.1-26.8 7.6zM569.4 122s23.2.2 34-1.8c-9.9 5.4-23.3 6.8-34 1.8z"/><ellipse transform="rotate(-8.622 409.24 91.538)" class="st3" cx="409.2" cy="91.5" rx="13.5" ry="7.8"/><path class="st4" d="M954.8 123l-.4 30.5 13.7.2.4-31.3z"/><path class="st0" d="M939.4 153.3s12.2-5.4 21.6.2c3.6-1.2 7.4-1.9 11.2-2.3l8.9 2.9 8.8 1.4-11 2.9-8.8-1.4-11.8.5-8.1-2.5-10.8-1.7zM958.4 291.2s25.5-11.5 29.7-15.4 8.7-6.3 10.3-8.9 5-1.6 3.6 1.6-5.5 11.3-10.3 15.4-26.5 11.5-31.9 11.9-6.5-3.4-1.4-4.6zM685.9 502.5s14.9 9.6 36.6 6.7 33.9-8.9 42.6-16.3-1.4-7.4-4.2-5.1-28.5 12.2-40.1 11.6-29.1-2.6-35-4.7-6.7 4.3.1 7.8zM692.8 466.4s10.1-11.7 26.7-13.2 26.5 1.8 33.9 7-.2 7.1-2.6 5.5-22.8-5.9-31.5-3.1-21.6 8-25.8 11-5.4-2.6-.7-7.2zM1287.4 196.6s14.2 10.7 36 9.4 34.5-6.4 43.7-13.1-.9-7.5-3.9-5.4-29.3 10.1-40.9 8.6-28.8-4.8-34.6-7.2-6.8 3.7-.3 7.7zM1297 161.1s11-11 27.6-11.2 26.3 3.8 33.3 9.5-.7 7.1-3 5.3-22.3-7.6-31.2-5.4-22.1 6.4-26.5 9.1-5.3-3.1-.2-7.3zM738.6 514s24.7-9.6 29-13.1 8.6-5.6 10.4-8.1 4.8-1.2 3.2 1.9-6.1 11-11 14.7c-4.9 3.7-25.7 9.5-30.8 9.5s-5.6-4.1-.8-4.9z"/><circle class="st4" cx="1060.1" cy="183.7" r="10.7"/><path class="st3" d="M1047.2 183.1c3 3.7 7.6 5.7 12.4 5.4 9.2-.4 13-6 13-6l2.9 6.7s.3 5.1-.6 5.7-10.5 3.8-10.5 3.8l-11.8-.3-11.1-8.2 5.7-7.1z"/><path class="st0" d="M1045.4 183.1s-2.3 3.6-.9 4.9 7.1 3.6 10.9 3.8c3.2.3 6.4 0 9.4-.9-2.9 2.5-8 4.2-10.9 3.6s-12.3-1.3-12.4-4.4 3.9-7 3.9-7zM1061.5 196.4s4.6-3.3 6.5-4.8 5.2-2.7 6.5-4.4-.6-4.6 0-5.2c2.8.6 3.6 4.2 2.2 6.4s-5.8 4.6-6.9 5-8.3 3-8.3 3z"/><path class="st0" d="M1045.9 196c-.5-.2 8.1 2.4 9.9 2.4 2.5-.1 5.1-.3 7.6-.7 3.9-.7 6.8-.9 10.3-3.6-1.8 2.9-10.5 7.2-15.3 7.1s-10.4-4.3-12.5-5.2z"/><circle class="st4" cx="1872" cy="206.5" r="10.7"/><path class="st3" d="M1859.2 204.5c2.6 4 7 6.4 11.8 6.7 9.2.6 13.6-4.6 13.6-4.6l2.1 6.9s-.2 5.1-1.2 5.6-10.8 2.7-10.8 2.7l-11.7-1.5-10.2-9.4 6.4-6.4z"/><path class="st0" d="M1857.4 204.4s-2.7 3.4-1.4 4.8 6.6 4.4 10.4 4.9c3.1.6 6.3.6 9.5.1-3.2 2.2-8.4 3.3-11.2 2.5s-12.1-2.6-11.9-5.7 4.6-6.6 4.6-6.6zM1872.1 219.2s4.9-2.8 7-4.1 5.4-2.1 7-3.7-.1-4.7.6-5.2c2.7.9 3.1 4.6 1.5 6.6s-6.2 4-7.4 4.3-8.7 2.1-8.7 2.1z"/><path class="st0" d="M1856.6 217.2c-.5-.3 7.8 3.2 9.6 3.4 2.5.2 5.1.2 7.6.1 3.9-.3 6.8-.2 10.6-2.5-2 2.7-11.2 6.1-16 5.4s-9.8-5.3-11.8-6.4z"/><circle class="st4" cx="582.1" cy="172" r="10.7"/><path class="st3" d="M569.2 173c3.5 3.3 8.2 4.7 12.9 3.9 9.1-1.4 12.2-7.5 12.2-7.5l3.6 6.3s.9 5 0 5.8-10 5-10 5l-11.7 1.1-12-6.9 5-7.7z"/><path class="st0" d="M567.3 173.2s-1.9 3.9-.3 5 7.5 2.8 11.2 2.5c3.2-.1 6.3-.8 9.2-2-2.6 2.9-7.4 5.1-10.3 4.9s-12.4.2-12.8-2.9 3-7.5 3-7.5zM584.9 184.4s4.1-3.8 5.9-5.6 4.8-3.3 6-5.2-1.1-4.5-.6-5.2c2.8.2 4 3.8 2.9 6.1s-5.2 5.3-6.3 5.8-7.9 4.1-7.9 4.1z"/><path class="st0" d="M569.4 185.9c-.5-.2 8.4 1.4 10.1 1.2 2.5-.4 5-.9 7.4-1.6 3.8-1.2 6.6-1.7 9.8-4.8-1.4 3.1-9.5 8.4-14.3 8.8s-10.7-2.9-13-3.6z"/><circle class="st4" cx="975.3" cy="437.2" r="10.7"/><path class="st3" d="M962.5 435.7c2.8 3.9 7.2 6.2 12 6.2 9.2.3 13.4-5.2 13.4-5.2l2.4 6.9s0 5.1-1 5.6-10.7 3.1-10.7 3.1l-11.7-1.1-10.5-9 6.1-6.5z"/><path class="st0" d="M960.6 435.6s-2.6 3.5-1.2 4.8 6.8 4.1 10.6 4.5c3.1.5 6.3.4 9.5-.3-3.1 2.3-8.2 3.6-11.1 2.9s-12.2-2.1-12.1-5.2 4.3-6.7 4.3-6.7zM975.8 449.9s4.8-3 6.8-4.4 5.3-2.4 6.8-4-.3-4.7.3-5.2c2.7.8 3.3 4.5 1.8 6.5s-6 4.2-7.3 4.5-8.4 2.6-8.4 2.6z"/><path class="st0" d="M960.3 448.5c-.5-.3 8 2.9 9.7 3 2.5.1 5.1 0 7.6-.2 3.9-.5 6.8-.5 10.5-2.9-1.9 2.8-10.9 6.5-15.7 6s-10-4.9-12.1-5.9zM295.7 248s44.8-10.7 56-10.1 18.1 1.2 29.3 4.4c-10.4-5.8-26.2-11-34.4-10.1s-20.4 3-27.9 4.5-23 11.3-23 11.3zM416.5 294s10.2 3.5 14.1 3.1 12.9-1.7 16.1-4.6c-2.2 3-4.2 6.2-7.6 6.9s-7 1.8-12.2.5-7.8-3.9-10.4-5.9zM870.6 195.6s10.2 3.5 14.2 3.1 12.9-1.7 16-4.6c-2.2 3-4.2 6.2-7.6 6.9s-7 1.8-12.2.4-7.8-3.8-10.4-5.8zM1071.5 272.7s19.7 14.7 35.7 15.7 29 0 41.7-4c-6.3 6.3-29.3 12.3-43 9.3s-24.4-6.4-34.4-21zM1497.2 516.7c40.8-.9 74.6 15.2 78.1 36.5.9-2.6 1.4-5.4 1.3-8.2-.5-22.8-35.6-40.6-78.4-39.6s-77 20.2-76.5 43.1c0 1 .1 2.1.3 3.1 6.7-19.1 37.7-34.1 75.2-34.9zM1427.3 581.9s29.4 21.9 53.2 23.4 43.3 0 62.2-6c-9.4 9.5-43.8 18.4-64.2 13.9s-36.2-9.4-51.2-31.3zM1258.4 310.3c40.8-.9 74.6 15.2 78.1 36.5.9-2.6 1.4-5.4 1.3-8.2-.5-22.8-35.6-40.6-78.4-39.6s-77 20.2-76.5 43.1c0 1 .1 2.1.3 3.1 6.7-19.1 37.7-34.1 75.2-34.9zM1188.5 375.5s29.4 21.9 53.2 23.4 43.3 0 62.2-6c-9.4 9.5-43.8 18.4-64.2 13.9s-36.3-9.4-51.2-31.3zM1535.2 276.4s-3.9-15 1.3-22.9c5.8-8.8 31.6-13.6 51.8-13.6 24.5.1 51.6 3.5 58.4 13.7s6.8 26.6 1.1 30.7-25.5 9.3-25.5 9.3 19.9-10.7 21.6-14.1 1.2-18.9-3-21.2-37.7-9.4-53.8-9.2c-23.6.4-38.2 2.4-43.3 8.4-5 6.3-8.6 18.9-8.6 18.9zM1681.6 210.1s3-7.1 1-12.2-23-10.2-32-8.1c-12.7 2.9-26.3 6.5-29.3 12.9s-2.3 16 1 18.1 14 4.1 14 4.1-11.1-5.3-12.2-7.1-1.6-11.1.5-12.6 18.8-7 27.3-7.7c12.5-1 23 .2 26 3.5s3.7 9.1 3.7 9.1zM1414.9 232.6s19.8-10.3 30.2-10c12.6-5.7 30.6-9.6 39.2-8.5 15.1-6.8 37.8-10.9 43.9-10 12.6-3.2 32.4-7.5 43.2-8.4-9.7-2.3-36.7 1.7-43.2 4.3-10.4.1-37.4 4.5-43.9 9.1-12.6 1.2-32.4 4.3-37.8 8.9-12.9 3.1-28.3 13.1-31.6 14.6zM1415.6 381.8s14.2 11.9 37.6 12.6 37.2-3 47.6-8.8-.3-7.5-3.7-5.7-32 7.2-44.2 4.6-30.3-7.4-36.3-10.4-7.7 3-1 7.7zM1429.3 343c8.8-6.2 19.5-9.1 30.3-8.4 17.7 1.4 27.7 6.2 34.7 12.5s-1.4 6.9-3.6 5-23.1-9.5-32.8-8.3-24 4.2-29 6.4-5.3-3.5.4-7.2zM1474.4 400.2s26.6-8.5 31.3-11.8 9.4-5.2 11.3-7.6 5.2-1 3.4 2-6.7 10.6-12 14-27.6 8.4-33.1 8.1-6.1-4-.9-4.7zM2207.1 559.5c18 2.8 31.6 12.5 31.5 22.1.6-1.1 1-2.3 1.2-3.5 1.6-10.1-12.5-20.6-31.4-23.5s-35.5 2.9-37 13c-.1.5-.1.9-.1 1.4 4.4-7.9 19.2-12.1 35.8-9.5zM2171.2 582.7s11.2 11.9 21.6 14.4 19 3.4 27.8 2.2c-4.9 3.4-20.7 4.7-29.3 1.1s-15.2-6.9-20.1-17.7zM1618.6 588.2c21.6-1.9 40 5.4 42.6 16.5.4-1.4.5-2.9.4-4.4-1.1-12.1-20.3-20.2-42.9-18.2s-40 13.5-39 25.5c.1.5.1 1.1.3 1.6 2.9-10.1 18.8-19.2 38.6-21zM2018.8 308.9c21.5 2.2 38.2 13 38.6 24.4.7-1.3 1.1-2.8 1.3-4.2 1.2-12-16-23.7-38.6-26.1s-41.9 5.5-43.1 17.5v1.7c4.7-9.6 22-15.4 41.8-13.3zM2353.7 137.3c21.3 3.8 37.6 13.8 37.7 22.8.7-.9 1.2-2 1.4-3.2 1.6-9.3-15.3-20.1-37.6-24.1s-41.7.3-43.3 9.6c-.1.4-.1.9-.1 1.3 5-7 22.3-9.9 41.9-6.4zM2346.4 173.6c-25.6-4.6-45.1-16.6-45.2-27.3-.8 1.1-1.4 2.4-1.6 3.8-1.9 11.1 18.3 24.1 45.1 28.9s50-.3 51.9-11.5c.1-.5.1-1 .1-1.6-6.1 8.5-26.8 11.9-50.3 7.7zM2158.5 242c10.7 1.1 19.2 5.4 19.6 9.8.3-.5.5-1.1.6-1.6.4-4.7-8.4-9.4-19.6-10.4s-20.7 1.8-21.1 6.5v.6c2.2-3.8 10.6-5.9 20.5-4.9zM2155.9 263c-15.1-1.5-27.1-7.6-27.7-13.9-.4.7-.7 1.5-.8 2.3-.6 6.6 11.8 13.2 27.7 14.8s29.2-2.5 29.8-9.1v-.9c-3.1 5.2-15.1 8.2-29 6.8zM1584 625.3s16.3 10.5 29 10.5 22.9-1.5 32.7-5.4c-4.7 5.3-22.5 11.3-33.5 9.7s-19.6-3.8-28.2-14.8zM370.4 485.2s100.4-28.5 108.6-31.9.2-8.5-7.4-6.7c-28.3 6.8-100.9 25.5-95.7 24.4l-5.5 14.2z"/><circle class="st4" cx="372.6" cy="475.9" r="12.3"/><path class="st3" d="M358.2 492.7s8.4.6 12.3.5 10.3-2.7 10.3-2.7l11.6 1.1-7.6 10.3-28.2.8-9.5-9.8 11.1-.2z"/><path class="st0" d="M350.2 488.5c-1.2-.9 5.8.9 7.2 1.5s12.5 1.6 14.9.8 9.5-3.6 9.5-3.6l9.8-1.5 8.8-2.6s-6.6 5.4-9.2 5.7-7.8.3-10.2 2-4.3 3.3-7.8 3.4-13.9.4-16.7-1-5.8-4.3-6.3-4.7zM379.7 497.3c1.5-.2 5.4-3.8 8.3-4.3s8.2-.5 11.7-1.8 12-4.8 17.3-4.1 11.1-.9 16.1-2.4c4.5-1.5 9.1-2.7 13.7-3.6 3.7-.5 23.1-.5 23.1-.5l-3.1 4.2s-16.9-2.7-21-.6-9.1 4.4-13.6 4.3-8 1.2-13.9 2.1-14.4 3.7-18.1 4.2-11.1.9-11.1.9l-9.4 1.6zM406.8 483.2c1.5-.3 5.3-4 8.2-4.5s8.1-.7 11.6-2.1 11.9-5.1 17.2-4.6 11.1-1.2 16-2.9c4.4-1.6 9-2.9 13.6-3.9 3.6-.6 23.1-1.1 23.1-1.1l-5.7 2s-14.2.1-18.3 2.3-9 4.6-13.5 4.7-8 1.4-13.8 2.5-14.3 4.1-18 4.7-11 1.2-11 1.2l-9.4 1.7zM381.1 461.5c1.3-.4 4.4-4.5 7-5.2s7.4-1.2 10.5-2.9 10.3-6.1 15.3-5.8 10-1.9 14.4-3.9c3.9-1.9 7.9-3.6 12-4.9 3.3-.9 21.1-2.5 21.1-2.5s-18.1 3.3-21.6 5.9-7.7 5.4-11.8 5.7-7.2 2-12.4 3.4-12.7 5.1-15.9 6-10 1.9-10 1.9l-8.6 2.3z"/><path class="st3" d="M359.3 481.6s5.8 1 11 1.6c5.5.7 11.1-.8 15.5-4.1l-5.8 8.5-13.6 2.3-7.1-8.3z"/><path class="st0" d="M1602 136s-92.2-6.4-100-7.9-1.7-7.3 5.2-7.1c25.8.7 92.2 3.8 87.4 3.8l7.4 11.2z"/><circle class="st4" cx="1598.4" cy="128.4" r="10.9"/><path class="st5" d="M1589.1 130.5c-.3-6 4.3-11.1 10.3-11.5 2.7-.1 5.4.7 7.5 2.5-3.8-4.7-10.6-5.4-15.3-1.6s-5.4 10.6-1.6 15.3c.5.6 1 1.1 1.6 1.6-1.5-1.8-2.4-4-2.5-6.3z"/><path class="st3" d="M1613.9 140.3s-7.2 2.1-10.6 2.6-9.5-.5-9.5-.5l-9.9 3.1 8.5 7.6 24.6-4.4 6.4-10.2-9.5 1.8z"/><path class="st0" d="M1620.1 135.2c.9-1-4.9 1.8-6 2.6s-10.5 3.7-12.8 3.4-8.9-1.4-8.9-1.4l-8.8.5-8.1-.7s6.7 3.4 9 3.3 6.8-1.1 9.2-.1 4.3 2.1 7.4 1.5 12.1-2.2 14.3-3.9c1.8-1.5 3.4-3.2 4.7-5.2zM1596.2 148.2c-1.3.1-5.4-2.3-8-2.2s-7.2 1.1-10.5.6-11.3-2-15.8-.4-9.8 1.2-14.4.8c-4.2-.5-8.3-.7-12.5-.6-3.3.2-20.1 3.8-20.1 3.8l3.5 3.1s14.1-5.4 18.1-4.3 8.7 2.1 12.6 1.3 7.2-.4 12.4-.7 13.2.6 16.4.4 9.8-1.2 9.8-1.2l8.5-.6zM1570.1 140.9c-1.3 0-5.3-2.5-7.9-2.4s-7.2.9-10.5.3-11.2-2.3-15.8-.9-9.8.9-14.4.4c-4.1-.6-8.3-.9-12.5-.9-3.3.1-20.2 3.2-20.2 3.2l5.3.7s12.3-2.5 16.3-1.3 8.6 2.4 12.5 1.6 7.2-.2 12.4-.4 13.2.9 16.4.8 9.8-.9 9.8-.9l8.6-.2zM1588.4 117.4c-1.2-.1-4.6-3.1-7-3.2s-6.6.3-9.6-.6-10-3.4-14.3-2.3-9 .2-13.2-.8c-3.7-1-7.5-1.7-11.3-2.1-3-.2-18.8 1.7-18.8 1.7s16.3-.4 19.8 1.2 7.6 3.2 11.3 2.8 6.6.4 11.4.7 11.9 2.1 14.9 2.3 9-.2 9-.2l7.8.5z"/><path class="st3" d="M1611 130.9s-4.8 1.9-9.2 3.4c-4.7 1.6-9.7 1.3-14.2-.8l6.6 6.3 12.2-.5 4.6-8.4z"/><ellipse class="st0" cx="1471" cy="122.1" rx="11" ry="4.5"/><ellipse class="st0" cx="1435.7" cy="119.3" rx="8.8" ry="3.6"/><path class="st0" d="M534.1 480s.5 8.1 2.9 9.6c6.9 4.4 15.4.5 15.4.5l9.6-1.4c2.5-.5 6.7-1.9 6.7-1.9l8.1-.8 6.8-.6 4.8-1.6 7-.9 10.8-1.7 2.7-.1 2.1-2.1-.8-3.1-1.2-2.9-2.7-2.6-.9-2.8-69.6 10.4-1.7 2z"/><path class="st4" d="M541 488.7l71.2-12.2-6.9-11-70.8 12.2z"/><ellipse transform="rotate(-85.78 1020.517 497.127) scale(1.00001)" class="st0" cx="1020.5" cy="497.1" rx="6.4" ry="11.3"/><path class="st0" d="M745.1 312.8s3.5 7.3 6.3 7.8c8 1.5 14.5-5.3 14.5-5.3s4.2-2.5 8.4-4.9c2.1-1.4 5.5-4.3 5.5-4.3l7.2-3.8 6-3.1 3.8-3.3 6.2-3.4 9.4-5.6 2.4-1.1 1.1-2.7-1.9-2.5-2.2-2.2-3.4-1.4-1.9-2.2-60.5 35.5-.9 2.5z"/><path class="st4" d="M754.8 318.3l61.6-37.9-10.6-7.6-61.1 37.7zM760.9 347.2h7.3l-1.9 5z"/><path class="st0" d="M716.2 334s-4.9 3.6-5.4 4.1-2 2.4-1.8 3.8 3.6 2.5 6 2.8 15.2 3.1 18.3 4.6c2.2.9 4.5 1.5 6.9 1.7 0 0 4.8-.2 7.5.9s2.3-2.5 2.3-2.5l-7.4-2.8s6.3.3 7.5.1-2.5-3-2.5-3l1.6-3.4-2.4-1.9-30.6-4.4z"/><path class="st4" d="M717.8 330.2l-6.6 10.3 36.4 8.7-4.7-4 9-.8-6.1-3.5 3.4-3.2z"/><path class="st0" d="M761.6 332.6l-2.5 1.8 2.1 2.2 3.7-1.4 2.6-.7-.1 4.1 4.1.7-3.1.7-1.4 2.4s7.8-.6 12-2.2c5.2-.3 14.8-3.2 16.5-4.2 2.6-.5 5.3-.8 8-.9 0 0 3.2-1.3 2.3-3.2s-5-7.2-5-7.2l-4.6-1.1-34.6 9z"/><path class="st4" d="M758.6 332.5l3.6-1 34.4-9.5 6.6 10.5-36.8 8.5 5.1-3.4-4.5-.8.8-4-5.6 2.1z"/><path class="st0" d="M1945.4 471.4s7.7 4.4 10.4 5c3.3 1.1 6.6 2.4 9.8 3.8 1.9 1.2 4.1 2.1 6.3 2.7 3.6.9 4.1 1.7 6.7 2.1s6.4 1.4 6.9 1.2 5.6-6.5 6.6-8.7-2.7-3.3-2.7-3.3l-39.2-13.3-12.3 8.2 7.5 2.3zM1934.3 467.5s-10.7-4.5-12.9-5.4-4.4-1.7-4.4-1.7-.1-2.9 2-3.4 10.1-5.1 10.1-5.1l15.2 7.7-10 7.9z"/><path class="st0" d="M1901.1 486.8s6.7 6.2 9.4 6.7c4-.8 7.8-2.2 11.4-4.1 0 0 4.2-2.5 8.4-4.9 2.1-1.4 5.5-4.3 5.5-4.3l7.2-3.8 6-3.1 3.8-3.3 6.2-3.4 9.4-5.6 2.4-1.1 1.1-2.7-1.9-2.5-2.2-2.2-3.4-1.4-1.9-2.2-60.5 35.5-.9 2.4z"/><path class="st4" d="M1910.8 492.3l61.6-37.9-10.6-7.6-61.1 37.7z"/><path fill="#4e6d61" d="M1939.4 460.6l12.8 6.1-2.7 1.6-14.5-4.7z"/><path class="st4" d="M1915.4 451.7l70.3 34.6 9.9-9.9-70.7-33.4z"/><path class="st0" d="M490.6 224.1c.6-.2 10.5-2.3 10.5-2.3 4.8-.9 9.7-1.6 14.6-2 3.7-.3 7.4-1.2 10.9-2.5l18 .6-17.2 3.1-9.4 2.9-15.4 1.6-13.8 2.9 1.8-4.3z"/><path class="st4" d="M490.2 197.2l-8.2 35.3 12.7-1.1 8-30.9z"/><path class="st0" d="M506.2 228.1l15.8-.8s11.7 1 12.3 1 27.9-.8 27.9-.8c6.6.5 13.1.5 19.7 0 8.8-.8 26.9 1.6 26.9 1.6s-25.5 1.4-26.1 1.4-13.8-.2-21.1.2-28.1 1.3-28.1 1.3l-12.9-.4-15.8-.2 1.4-3.3z"/><path class="st0" d="M476.8 233.3s9.4-5.9 17.8-2.4c2.8-1.4 5.8-2.5 8.9-3.2l7.6 1.3 7.4.1-8.7 3.7-7.4-.1-9.6 1.8-6.9-1.1-9.1-.1zM462.9 234.6s7.8-1.8 14.4 2.5c8.8.6 14.2.6 14.2.6s-12.5 2.1-15.8 3.7c-7.5-3.5-9.3-7-12.8-6.8zM125.7 204.3s15.9-11.5 27-10.3c12.6-2.2 21.6-5.6 28.8-5.4 9-2.9 18.8-4.6 27.1-3.6s8.7 6.7 1.1 6.5-17.8-1.3-24.9 2.5c-3.7-1-14.7-.2-30.8 6.6-12.4.4-28.3 3.7-28.3 3.7zM153.4 184.5s13.6-7.6 22-5.4c10-.5 17.4-2.2 22.9-1.4 7.3-1.4 15-1.7 21.3 0s6 6.3.1 5.3-13.6-2.9-19.5-.6c-2.8-1.2-11.4-1.7-24.6 2.1-9.5-1.1-22.2 0-22.2 0z"/><path class="st1" d="M961.8 25.4s-7.2 4.4-11 10.8C952.2 31.5 960 24 960 24l1.8 1.4zM1044.6 21s7 5.5 10.3 9.4c-2.4-4.1-5.5-7.8-9.1-10.9l-1.2 1.5zM676.9 159.8c2.5-2.4 5.1-4.7 7.9-6.8 2.7-2.2 5.7-4.1 8.9-5.6 6.5-2.6 13.3-4.4 20.2-5.5 1.8-.2 3.5-.4 5.3-.4s3.5-.1 5.2-.1c3.5 0 7 0 10.4.2 3.5.1 7 .5 10.4 1.2.9.2 1.7.5 2.5.9l2.3 1.1 4.8 2.1c-1.7-.5-3.3-1-5-1.6l-2.4-.9c-.8-.3-1.6-.5-2.4-.7-3.4-.5-6.8-.7-10.2-.6-3.4 0-6.9 0-10.3.2l-5.2.2c-1.7.1-3.4.2-5.1.5-3.4.5-6.7 1.1-10 2-3.3.9-6.7 1.8-9.9 2.9-3.1 1.3-6.1 3-8.9 4.9-3 1.8-5.7 3.9-8.5 6zM360.2 154.5c1.7-1.5 3.5-2.9 5.4-4.3s3.7-2.8 5.6-4c1.9-1.3 3.9-2.5 5.9-3.6 2.1-1.1 4.2-2 6.4-2.8 4.4-1.5 8.8-2.7 13.3-3.7s9-1.8 13.6-2.4c4.6-.6 9.2-.9 13.8-1.1 4.6-.2 9.2 0 13.8.4 2.4.2 4.6.8 6.8 1.8 1 .8 1.8 1.5 2.7 2.2l2.7 2.1c3.7 2.7 7.5 5.3 11.4 7.7-4-2.2-7.9-4.6-11.6-7.3-.9-.7-1.9-1.3-2.8-2l-1.4-1c-.4-.4-.9-.7-1.3-1-1-.5-2.1-.8-3.1-.9-1.1-.2-2.2-.3-3.4-.4-4.5-.2-9.1-.2-13.6.1-4.5.3-9.1.7-13.6 1.3-9 1.2-17.9 3.1-26.6 5.7-2.1.7-4.2 1.5-6.3 2.4-2 1-4 2.1-6 3.2-4.1 2.5-7.9 5.1-11.7 7.6zM1695.1 74.4c3.8-2.1 7.8-4.1 11.8-5.8 2-.9 4.1-1.7 6.2-2.4 2.1-.7 4.3-1.3 6.5-1.7 8.7-1.4 17.5-2.1 26.3-2 2.2.1 4.4.2 6.6.5s4.4.5 6.5.7c4.3.5 8.7 1.1 13 1.8 4.4.6 8.7 1.6 12.9 2.8 1.1.4 2.1.8 3.1 1.3l2.9 1.4c2 1 3.9 1.9 5.9 2.9-2-.8-4.1-1.6-6.1-2.4l-3-1.2c-1-.4-2-.7-3-1-4.2-1-8.5-1.7-12.8-2.2-4.3-.5-8.7-1-13-1.5s-8.7-1-13-1.1-8.7 0-13 .3-8.7.7-13 1.2c-2.1.3-4.2.7-6.3 1.4-2.1.6-4.2 1.3-6.2 2-4.3 1.5-8.3 3.2-12.3 5zM1939.2 89.4c1.3-.5 2.5-1.1 3.7-1.7 1.2-.7 2.4-1.4 3.5-2.1s2.2-1.6 3.2-2.4 2-1.8 3-2.7l.1-.1h.1c1.7-1 3.6-1.8 5.5-2.3 1.9-.5 3.8-1 5.7-1.3 1.9-.3 3.9-.5 5.8-.6 2-.2 3.9-.2 5.9 0 2 .2 3.8.5 5.7.8 1.9.3 3.8.6 5.7 1.1 1.9.5 3.7 1.2 5.5 2.1 1.7.8 3.4 1.7 5.1 2.7-1.8-.7-3.6-1.4-5.3-2.1-1.8-.7-3.6-1.2-5.5-1.4-3.7-.5-7.6-.7-11.3-1.2-3.7-.2-7.5 0-11.2.5-3.7.4-7.3 1.4-10.7 3l.1-.1c-1 .9-2.1 1.8-3.3 2.6-1.1.8-2.3 1.6-3.5 2.2-2.5 1.4-5.1 2.4-7.8 3zM1788.8 102.9c-3.1 1.8-6.3 3.4-9.6 4.8-1.7.7-3.3 1.4-5 2-1.7.6-3.5 1.1-5.3 1.4-7.1 1.1-14.3 1.5-21.5 1.2-1.8-.1-3.6-.3-5.4-.6s-3.5-.5-5.3-.8c-3.5-.6-7.1-1.2-10.6-2-3.5-.7-7-1.7-10.4-2.9-.8-.4-1.7-.8-2.4-1.3l-2.3-1.4c-1.5-.9-3.1-1.8-4.6-2.8 1.6.8 3.2 1.5 4.8 2.3l2.4 1.2c.8.4 1.6.7 2.4 1 3.4 1 6.9 1.7 10.3 2.3 3.5.6 7 1.2 10.5 1.7l5.3.8c1.7.2 3.5.4 5.2.5 3.5.2 7.1.2 10.6 0 3.5-.1 7.1-.4 10.6-.8 1.7-.2 3.4-.6 5.1-1.1 1.7-.5 3.4-1 5-1.6 3.6-1.1 6.9-2.5 10.2-3.9zM758.7 178.7c-2.6 1.6-5.3 3.1-8.1 4.5s-5.7 2.5-8.7 3.3c-6 1.5-12 2.7-18.2 3.3-3.1.3-6.2.4-9.2.5s-6.1.1-9.2.1c-3.1 0-6.2-.2-9.2-.5-1.6-.2-3-.7-4.5-1s-3-.8-4.4-1.2l4.5.6c1.5.3 3 .5 4.5.6 3 .1 6.1 0 9.1-.1s6.1-.2 9.2-.4 6.1-.2 9.1-.6c6-.6 12-1.7 18-2.9 2.9-.7 5.8-1.6 8.6-2.7 2.9-1 5.6-2.3 8.5-3.5zM755.8 51.8c-2.3 1.8-4.7 3.5-7.2 5.1-2.5 1.6-5.2 2.9-8 3.9-5.6 1.8-11.4 3.1-17.3 3.8-3 .3-5.9.4-8.9.4s-5.9.1-8.8 0c-3 0-5.9-.3-8.8-.7-.7-.1-1.5-.4-2.2-.6l-2.1-.7-4.2-1.5c1.4.3 2.9.6 4.3 1s2.8.7 4.2.9c2.9.2 5.8.2 8.7.1 2.9-.1 5.8-.2 8.8-.3s5.8-.2 8.7-.5c5.8-.8 11.5-1.9 17.1-3.4 1.4-.4 2.7-.9 4-1.4l3.9-1.8c2.7-1.4 5.2-2.9 7.8-4.3zM1037.4 37.5c-2.4 1.7-5 3.2-7.6 4.5-2.6 1.4-5.4 2.6-8.3 3.4-5.8 1.4-11.6 2.3-17.5 2.6-3 .1-6 0-8.9-.2s-5.9-.3-8.8-.6c-3-.2-5.9-.7-8.8-1.3-.7-.2-1.4-.5-2.1-.8l-2-.9c-1.3-.6-2.7-1.2-4-1.8l4.2 1.2c1.4.5 2.8.9 4.2 1.2 2.9.4 5.8.7 8.7.8 2.9.1 5.8.2 8.8.3s5.8.2 8.7.1c5.8-.3 11.6-1.1 17.3-2.2 1.4-.3 2.8-.7 4.1-1.1 1.4-.5 2.7-1 4.1-1.6 2.6-1.1 5.2-2.4 7.9-3.6z"/><path class="st3" d="M1323 6.3s28.5.8 33.1 3.4 9.2 9.2 9.2 9.2l-9.5 2.4s-21.7-3.3-28.6-3.9-30.7 2-30.7 2-4.7.3-7.5-1.2c6-7.2 14.3-12.4 34-11.9z"/><path class="st0" d="M1293.6 31.9s16.3 11.4 34 9.8 27.4-5.6 34.2-13.7-1.5-9-3.7-6.5-20.7 9.3-30.6 9.1c-12.5-.2-26.2-4.5-31.2-7.5s-5.4 5.2-2.7 8.8zM1323.6 11.1s22.6.5 26 2c2.6 1.2 5.2 2.6 7.6 4.2l-8.6 2.1s-16.6-1.3-21.9-1.4-23.7 2.5-23.7 2.5c-1.7-1.2-3.5-2.2-5.3-3.1 4.1-1.8 10.7-5.8 25.9-6.3z"/><path class="st1" d="M1350.5 20.4c-1.7 1.1-3.4 2-5.2 2.9-1.8.9-3.7 1.6-5.7 2-3.9.7-7.9 1.1-11.9 1-2-.1-4-.3-6-.5s-3.9-.5-5.9-.9c-2-.3-3.9-.8-5.8-1.4-.5-.2-1-.4-1.4-.6l-1.3-.7c-.9-.5-1.7-1-2.6-1.4.9.3 1.9.6 2.8.9.9.4 1.8.7 2.8.9 1.9.4 3.8.6 5.8.8 1.9.2 3.9.4 5.8.5s3.9.4 5.8.4c3.9 0 7.8-.2 11.6-.6 1.9-.3 3.8-.7 5.6-1.3 1.9-.6 3.8-1.3 5.6-2z"/><path class="st3" d="M1404.4 2.4s43.6 3.3 50.4 7.4 13.5 14.1 13.5 14.1l-14.7 2.8s-33-6.4-43.4-7.8-47.2.8-47.2.8-6.2-5.7-10.4-8.1c8.3-3.8 21.6-11.4 51.8-9.2z"/><path class="st0" d="M1357.7 37.6s24.1 17.7 51.4 16.7 42.2-6.3 53.3-17.6-1.7-13.3-5.3-9.8-32.3 12.1-47.4 11.1c-19.1-1.2-39.8-8.5-47.3-13.2s-8.7 7.4-4.7 12.8zM1405 9.5s34.5 2.4 39.7 4.8c3.9 1.9 7.7 4.2 11.3 6.6l-13.3 2.5s-25.4-3-33.4-3.6-36.4 2-36.4 2c-2.5-1.8-5.2-3.5-7.9-4.9 6.4-2.6 16.7-7.8 40-7.4z"/><path class="st1" d="M1445.5 24.9c-2.7 1.3-5.5 2.5-8.3 3.6-2.9 1.1-5.8 1.9-8.8 2.3-6 .7-12.1.9-18.1.6-3.1-.2-6-.7-9-1.2s-5.9-1-8.9-1.6c-3-.6-5.9-1.3-8.8-2.3-.7-.3-1.4-.6-2.1-1l-2-1.1c-1.3-.7-2.6-1.4-4-2.2 1.4.5 2.8 1.1 4.2 1.7l2.1.9c.7.3 1.4.5 2.1.7 2.9.7 5.8 1.3 8.8 1.7 3 .5 5.9.9 8.9 1.3s5.9.9 8.9 1c6 .3 11.9.3 17.9-.1 2.9-.3 5.8-.9 8.7-1.7 2.7-.7 5.6-1.6 8.4-2.6zM572.3 61.3l38.5-2.3-38.4 4.3zM663.4 52.6l-31.6 4 31.3-6zM840 33.5l26-.2-26 2.2zM907.2 30.5l-23.3 1.3 23.1-3.3zM1083.9 19l22.8 1.5-22.9.5zM1155.9 19l-19.6-.2 19.5-1.8z"/><path class="st0" d="M476.3 79.8s-2.7 2.4.3 3.6 15 1.2 26.2-.9 23.7-8.1 25.6-9.9-.3-3-3.3-1.8-14.4 5.1-21.8 6.9-22.6 2.5-27 2.1zM482 75.8s12.3-6.2 34.9-7.2c-.6 1.2-1.5 2.2-2.6 2.9 0 0-18.9 3.3-26.6 5.1-4.2.3-5.7-.8-5.7-.8z"/><path class="st5" d="M954.8 142.9V123l9.2-.4-7.5 1.8z"/><path class="st4" d="M805.5 21.9l13.9 44.7 10.9-3.3-14.1-45.4z"/><path class="st0" d="M807.5 70.2s8.3-7.3 17.1-5.3c2.6-1.8 5.4-3.4 8.3-4.6h7.8l7.3-1.1-8 5.1-7.3 1.1-9.2 3.3-7 .1-9 1.4zM831.1 70.9c2.5-1.1 5.1-2 7.8-2.6 2.3-.2 4.6-.1 6.9.2 2.3-.7 4.7-1.2 7.1-1.5 1.4 0 5.8.7 5.8.7l-7.9 4.1-4.7 1.7-7.4-1.7-7.6-.9z"/><path class="st5" d="M814.3 50l-8.8-28.2 8.7-3.2-7.3 3.9z"/><path class="st4" d="M1720.8 241l5.3 46.5 11.3-1.2-5.4-47.2z"/><path class="st0" d="M1713.7 288.9s9.6-5.6 17.8-2c2.9-1.3 5.9-2.3 9-3l7.6 1.5 7.4.3-8.8 3.5-7.4-.3-9.7 1.5-6.9-1.2-9-.3zM1736.8 293.9c2.7-.6 5.4-1 8.1-1.1 2.3.3 4.6.8 6.8 1.5 2.4-.2 4.8-.3 7.2-.2 1.4.3 5.6 1.8 5.6 1.8l-8.5 2.5-4.9.8-7-3-7.3-2.3z"/><path class="st5" d="M1724.2 270.3l-3.4-29.4 10.2-1.4-8 2.7z"/><path class="st4" d="M1644.5 400.5l-7.2 26.9 12.7-.7 7.5-23.9z"/><path class="st0" d="M1625.4 428.3s9.6-5.6 17.8-2c2.9-1.3 5.9-2.3 9-3l7.6 1.5 7.4.3-8.8 3.5-7.4-.3-9.7 1.5-6.9-1.2-9-.3zM1648.5 433.4s5.7-1.2 8.1-1.1c2.3.3 4.6.8 6.8 1.5 2.4-.2 4.8-.3 7.2-.2 1.4.3 5.6 1.8 5.6 1.8l-8.5 2.5-4.9.8-7-3-7.3-2.3z"/><path class="st5" d="M1639 421l5.5-20.5 9.2 1.7-8.3-.4z"/><path class="st4" d="M2071.3 237.4l-2.9-1.9-.1 34.7 12.1-4 1.1-34.6-3.2 1.7-1.1-5.3-2.4 5.3-3.8-4.7z"/><path class="st0" d="M2050.9 268.9s9.6-5.6 17.8-2c2.9-1.3 5.9-2.3 9-3l7.6 1.5 7.4.3-8.8 3.5-7.4-.3-9.6 1.5-6.9-1.2-9.1-.3zM2074 273.9c2.7-.6 5.4-1 8.1-1.1 2.3.3 4.6.8 6.8 1.5 2.4-.2 4.8-.3 7.2-.2 1.4.3 5.6 1.8 5.6 1.8l-8.5 2.5-4.9.8-7-3-7.3-2.3z"/><ellipse transform="rotate(-80.201 1989.786 228.222)" class="st0" cx="1989.8" cy="228.2" rx="2.9" ry="6.1"/><ellipse transform="rotate(-65.159 1923.58 250.875)" class="st0" cx="1923.6" cy="250.9" rx="2.3" ry="4.7"/><path class="st0" d="M1942.4 246.2s10.4 9.5 28.5 10.9c18.1 1.4 29.2-1 37.6-5s.2-5.7-2.5-4.4-25.3 4.3-34.7 1.9-23.2-6.7-27.6-9.2-6.2 2.1-1.3 5.8zM1955.4 217.3c7.2-4.4 15.7-6.2 24.1-5.3 13.7 1.7 21.2 5.7 26.3 10.7s-1.5 5.2-3.1 3.6-17.4-8.1-25-7.4-19 2.3-22.9 3.9-4-2.9.6-5.5zM1980.7 266.4c5.8-.1 14-1.1 18.7-2.8s13.7-6.4 16-8.7 9.3-7.1 9.3-7.1-4.2 6.8-7.5 9.2c-3.3 2.4-14 10.1-18.2 11.1s-20.4 1.6-22 1-7.5-2.3-7-2.6 10.7-.1 10.7-.1zM1808.4 341.8s11.3 12.1 31.2 13.5 32.2-2 41.6-7.5.3-7.4-2.7-5.7-28.1 6.2-38.4 3.4-25.4-8.1-30.3-11.2-6.7 2.7-1.4 7.5zM1823.4 303.8s11.6-9.3 26.7-7.5 23.3 6.8 28.8 13.2-1.7 6.8-3.5 4.8-19.1-10-27.5-9-21 3.5-25.4 5.6-4.3-3.5.9-7.1z"/><path class="st0" d="M1805.8 345.9c4.9 4 12.7 9 18.1 10.8s17.1 3.8 21.1 3.2 14.2-.1 14.2-.1-9.5 3.4-14.4 3.3-20.7-.5-25.1-2.5-18.6-13.2-19.4-14.9-4.3-7.6-3.6-7.5 9.1 7.7 9.1 7.7z"/><path class="st0" d="M1850.3 367c6.4-.3 15.5-1.8 20.7-4.1s15.3-8.6 17.8-11.8 10.5-9.5 10.5-9.5-4.8 8.9-8.5 12.1-15.7 13.5-20.4 14.9-22.6 2.6-24.4 1.9-8.3-2.8-7.7-3.2 12-.3 12-.3z"/><ellipse transform="rotate(-85.78 2010.121 370.114) scale(1.00001)" class="st0" cx="2010.1" cy="370.1" rx="3.8" ry="6.7"/><ellipse transform="rotate(-66.052 1940.72 409.652)" class="st0" cx="1940.8" cy="409.6" rx="3" ry="5.3"/><ellipse transform="rotate(-81.541 1768.134 482.616)" class="st0" cx="1768.1" cy="482.6" rx="8.6" ry="18.4"/><ellipse transform="matrix(.9993 -.03612 .03612 .9993 -18.445 58.94)" class="st0" cx="1622" cy="540" rx="14.2" ry="9.6"/><ellipse transform="rotate(-83.541 1741.183 389.194)" class="st0" cx="1741.3" cy="389.2" rx="8.6" ry="18.4"/><ellipse class="st0" cx="1829.2" cy="428.2" rx="18.4" ry="8.6"/><ellipse transform="rotate(-83.489 2110.435 379.28)" class="st0" cx="2110.5" cy="379.3" rx="8.6" ry="18.4"/><ellipse transform="rotate(-83.489 2089.655 358.5)" class="st0" cx="2089.7" cy="358.5" rx="5.7" ry="12.1"/><ellipse class="st0" cx="2042" cy="423.8" rx="12.1" ry="5.7"/><ellipse transform="rotate(-85.78 2020.342 584.723) scale(1.00001)" class="st0" cx="2020.3" cy="584.7" rx="3.8" ry="6.7"/><ellipse transform="rotate(-85.996 2077.08 577.037) scale(1.00004)" class="st0" cx="2077.1" cy="577" rx="8.7" ry="18.5"/><ellipse transform="rotate(-86.18 2022.597 557.515) scale(1.00002)" class="st0" cx="2022.6" cy="557.5" rx="8.6" ry="18.4"/><ellipse transform="rotate(-86.18 2072.6 551.816) scale(1.00002)" class="st0" cx="2072.6" cy="551.8" rx="6.1" ry="13.1"/><ellipse transform="rotate(-85.996 2125.268 541.356) scale(1.00004)" class="st0" cx="2125.3" cy="541.4" rx="6.2" ry="13.1"/><ellipse transform="rotate(-86.18 1946.017 579.028) scale(1.00002)" class="st0" cx="1946" cy="579" rx="9.1" ry="19.3"/><ellipse transform="rotate(-86.18 2091.585 529.663) scale(1.00002)" class="st0" cx="2091.6" cy="529.7" rx="6.1" ry="13.1"/><ellipse transform="rotate(-86.18 2162.473 518.271) scale(1.00002)" class="st0" cx="2162.5" cy="518.3" rx="4.7" ry="10"/><ellipse class="st0" cx="2052.2" cy="638.4" rx="12.1" ry="5.7"/><ellipse class="st0" cx="1722.7" cy="436.4" rx="12.8" ry="6.7"/><ellipse transform="rotate(-87.709 1737.038 190.587)" class="st0" cx="1737" cy="190.6" rx="8.6" ry="18.4"/><ellipse transform="rotate(-82.519 2011.272 142.686)" class="st0" cx="2011.3" cy="142.7" rx="7" ry="14.9"/><ellipse transform="matrix(.04344 -.9991 .9991 .04344 1518.503 1940.252)" class="st0" cx="1772.5" cy="177.1" rx="5.7" ry="12.1"/><ellipse transform="rotate(-87.709 1816.35 237.795)" class="st0" cx="1816.3" cy="237.8" rx="3.8" ry="8.1"/><ellipse transform="matrix(.04344 -.9991 .9991 .04344 1455.81 2017.22)" class="st0" cx="1781.3" cy="248.4" rx="3.8" ry="8.1"/><ellipse transform="scale(.99998) rotate(-85.29 1661.615 328.308)" class="st0" cx="1661.6" cy="328.3" rx="5.2" ry="11"/><ellipse transform="rotate(-87.709 1641.338 169.674)" class="st0" cx="1641.3" cy="169.7" rx="3.8" ry="8.1"/><ellipse transform="scale(1.00004) rotate(-87.51 1841.325 79.23)" class="st0" cx="1841.4" cy="79.2" rx="3.8" ry="8.1"/><ellipse transform="matrix(.04344 -.9991 .9991 .04344 1212.568 1745.734)" class="st0" cx="1517.9" cy="239.6" rx="3.8" ry="8.1"/><ellipse class="st0" cx="1402.5" cy="314" rx="14.7" ry="6.9"/><ellipse class="st0" cx="1448.8" cy="288.8" rx="17" ry="8.7"/><path class="st0" d="M1295.6 94.9s-3.8-5.7-1.8-10 25.6-9.4 35.9-8.1c14.6 1.8 30.1 4.2 33.9 9.2s3.3 13-.3 14.9-15.7 4-15.7 4 12.3-4.8 13.5-6.4 1.3-9.1-1.2-10.3-21.7-4.8-31.4-5c-14.3-.3-26.1 1.2-29.3 4s-3.6 7.7-3.6 7.7zM1484.6 449s24.2-5 35.3-1.6c15.1-2.2 35.6-1.1 44.6 2.5 18.2-2.7 43.8-.5 50.1 2.3 14.5.3 37 1.6 48.9 3.8-9.8-5.2-40.1-8.8-47.8-8-11.3-2.9-41.6-6.1-49.9-3.2-13.9-2.4-36.1-4.9-43.2-1.6-14.7-.7-34.1 5.2-38 5.8zM1464.4 459.5s24.3-4 35.4-.3c15.2-1.7 35.6.3 44.5 4.2 18.2-2 43.7 1.2 50 4.2 14.4.8 36.9 3 48.7 5.6-9.7-5.6-39.8-10.3-47.5-9.8-11.2-3.3-41.4-7.7-49.7-5-13.8-2.9-35.9-6.3-43.1-3.3-14.7-1.2-34.4 3.9-38.3 4.4zM1882.9 126.6s-9.3-.7-15.3-1.8-8.6-6.3-5.3-7.7 10-2.3 10-2.3l10.6 11.8z"/><path class="st4" d="M1896.2 95.4c-17.2-10.4-29.2 8.6-31.6 12.4s3.7 11.7 13.4 17.6c9.7 5.9 19.4 7.6 21.8 3.8s13.5-23.4-3.6-33.8z"/><path d="M1880.2 113.1c.2 1.9-2.8 5-1.2 7.8.4.6.9 1.1 1.5 1.4.6.4 1.3.6 2 .7 3.3.2 4.7-4 6.4-4.7l-8.7-5.2z" fill="#753d54"/><path d="M1874.9 111.6c-.4-.2-.6-.7-.3-1.2.2-.4.6-.5 1-.4.3.1 7.1 2.4 18.4 10.7.4.3.5.8.2 1.2-.3.4-.8.5-1.2.2-11.1-8.1-17.9-10.4-17.9-10.4-.1 0-.2 0-.2-.1z" fill="#2f2f2f"/><path class="st9" d="M1880.2 101.9s1.1 3.2 1.8 6.3M1878.2 106.7c1.9-1.2 3.8-2.2 5.7-3.2M1896 111.2c-.1 2.2-.2 4.4-.5 6.5M1892.5 114.9c2.2-.4 4.3-.7 6.5-.9"/><path class="st3" d="M1917.8 135.6l-16-11.6s-13.7 2.6-21.7 2.8c-7.7.1-15.3-2.2-21.6-6.6l7.3 11.3 29.1 7.6 22.9-3.5z"/><path class="st0" d="M1908.5 121.6s-1.5 6.5-6 8.3-17.8 3.6-23.2 2.9-17.3-4.8-19.6-7.9-9.7-4.4-9.7-4.4l6.4 6.4s13.2 12.8 19.8 10.9c11.7 1.3 23.8-.7 26.8-2.1s5.5-14.1 5.5-14.1z"/><path class="st1" d="M1470.8 55.2s17.7-1.7 26.3.2c10.3-.4 20.5-1.1 27.2.7 10.6-.3 17.1-.2 25.1 1.8-9-3.5-18.3-5.3-24.8-4.3-13.3-1.6-20.4-1.5-26.9-.8-9.3-1.4-22.3.5-26.9 2.4zM1715.8 51.3s24.8-.8 36.8 2c14.5.2 28.7.1 38.2 2.6 14.8.3 24 .9 35.3 3.8-12.7-4.8-25.8-7.5-34.9-6.8-18.7-2.8-28.7-3.2-37.7-2.8-13-2.1-31.2-.7-37.7 1.2z"/><path class="st3" d="M1870.4 38.9c10.1-.7 31 2.1 41.4 4.8 9 2.3 16.3 16.4 16.3 16.4l-10.4 1.5s-23.6-4.5-31-5.5-33.5-.3-33.5-.3c-2.4-1.9-4.9-3.7-7.5-5.2 2.6-3.8 3.2-10.3 24.7-11.7z"/><path class="st0" d="M1859.8 45.6s-3.6 1.5-.7 3.5 16 5.8 28.7 7.2 28-.5 30.6-1.7.5-3-3.1-2.7-17.1.5-25.6 0-25.3-4.7-29.9-6.3zM1867.1 43.5s15.1-2.2 39.9 3.8c-1 .9-2.3 1.6-3.6 2 0 0-21.5-2.6-30.4-3.2-4.6-1.1-5.9-2.6-5.9-2.6zM1682.1 116.3s31 22.7 62 22.8c34.2.2 49.4-6.2 63.5-20.7 17.8-18.3 4.6-22.2-.6-15.9s-41.6 23.3-60.2 21.4c-23.7-2.4-49.3-15.2-57.7-23.8s-10.8 6.5-7 16.2zM1745.4 70.6s42.6 4.7 48.6 9 12.8 12 12.8 12l-17 4.2s-31.1-5.8-41-6.8-45.8 3.1-45.8 3.1-5.2-6.2-9-8.8c8.5-4.4 22.4-13.7 51.4-12.7zM2054.4 121.4s25.7-3 37.3 1.1c16.1-1 37.5 1.7 46.8 5.8 19.3-1.2 46.1 2.9 52.5 6.1 15.2 1.4 38.8 4.4 51.2 7.4-10.1-5.8-41.6-11.6-49.8-11.4-11.7-3.7-43.4-9.1-52.2-6.9-14.5-3.3-37.7-7.6-45.4-4.9-15.5-1.8-36.3 2.5-40.4 2.8zM2087.6 135.5s25.8-2.1 37.2 2.4c16.1-.5 37.4 3 46.6 7.5 19.3-.6 45.9 4.5 52.3 7.9 15.1 1.9 38.6 5.7 50.9 9.2-9.8-6.2-41.2-13.1-49.3-13.1-11.6-4.1-43-10.6-52-8.7-14.4-3.9-37.4-8.9-45.1-6.5-15.5-2.4-36.4 1.1-40.6 1.3zM2097.3 107.2s17.8.6 26 3.5c10.3.9 20.5 1.5 26.9 4.1 10.6 1 17 2 24.7 5-8.4-4.6-17.5-7.6-24.1-7.4-13-3.3-20.1-4.1-26.6-4.3-8.9-2.4-22.1-2.2-26.9-.9zM1582.7 57.4s17.8-1.4 26.3.6c10.3-.2 20.5-.7 27.2 1.1 10.6-.2 17.2.1 25.1 2.2-8.9-3.7-18.2-5.6-24.8-4.8-13.3-1.8-20.4-1.9-26.9-1.3-9.2-1.2-22.3.4-26.9 2.2zM1926.2 171.9s18 0 26.3 3c10.4.7 20.7 1 27.1 3.6 10.7.7 17.2 1.6 24.8 4.6-8.3-4.9-17.4-7.8-24.1-7.4-13.1-3.2-20.2-3.9-26.8-3.8-8.9-2.4-22.3-1.7-27.3 0zM1555 70.2s17.8-1.4 26.2.6c10.3-.2 20.5-.7 27.2 1.1 10.6-.2 17.2.1 25.1 2.2-8.9-3.7-18.2-5.6-24.8-4.8-13.3-1.8-20.4-1.9-26.9-1.3-9.1-1.3-22.1.3-26.8 2.2zM1498.3 193.7s17.4-3.6 26.1-2.7c10.2-1.5 20.2-3.3 27.1-2.3 10.5-1.5 17-2.1 25.2-1-9.3-2.5-18.8-3.3-25.2-1.6-13.4-.1-20.5.7-26.8 2.1-9.3-.2-22 3.1-26.4 5.5zM2165.6 343.5s12.2 14.4 29.3 15.2 27.2-2.2 36-10c-.4-8.4-1.7-2-.8-6.5-2.8 2.4-22 7-31.2 5.5-11.7-2-23.4-8.5-27.3-12.4-3.6 8.5-2.2-.3-6 8.2z"/><path class="st0" d="M2200.5 326.5s21.1 3.7 23.9 5.8c2 1.6 3.8 3.6 5.2 5.8l-10.2 2.3s-13.7-3.1-18.6-4-19.3.3-19.3.3-5.2-5.8-7-7c4.3-1.6 11.6-4.8 26-3.2zM1948.3 95.8s9.8 12.2 23.6 12.9 22-1.9 29-8.4c-.3-7.1-1.3-1.7-.6-5.5-2.2 2-17.7 6-25.2 4.6-9.4-1.7-18.9-7.2-22-10.5-2.9 7.2-1.7-.3-4.8 6.9z"/><path class="st0" d="M1976.4 81.4s17 3.1 19.2 4.9c1.6 1.4 3 3 4.2 4.9l-8.2 1.9s-11-2.6-14.9-3.3-15.6.2-15.6.2c-1.8-2.1-3.7-4-5.7-5.9 3.5-1.3 9.4-4.1 21-2.7zM1587 363.5s12.1 13.7 25.8 12.5 21.3-5.7 27-15c-1.7-8.8-1.7-2-1.7-6.8-1.8 2.9-16.4 10.1-24 9.6-9.6-.6-20-6.1-23.8-9.8-1.4 9.5-1.6-.1-3.3 9.5z"/><path class="st0" d="M1612 341.1s17.4 1.3 20 3.1c1.9 1.6 3.6 3.4 5 5.5l-7.8 3.7s-11.4-1.6-15.4-1.9-15.3 2.7-15.3 2.7-5.1-5.4-6.7-6.5c3.2-2.1 8.4-6.5 20.2-6.6z"/><ellipse transform="rotate(-77.168 2259.058 379.786)" class="st0" cx="2259" cy="379.8" rx="11.6" ry="24.9"/><ellipse transform="rotate(-71.107 2285.254 364.99)" class="st0" cx="2285.1" cy="365" rx="6" ry="13.1"/><path class="st0" d="M2123.1 474s16.8 11.9 43.2 13.1 41.9-2.3 53.3-7.9-.8-7.4-4.5-5.7-35.7 6.5-49.7 3.8-34.7-7.8-41.6-10.9-8.6 3-.7 7.6zM2141.2 426.2s13.6-9.4 33.7-7.8 31.7 6.6 40 12.9-1.1 6.8-3.8 4.8-26.7-9.8-37.5-8.7-26.9 3.7-32.4 5.8-6.2-3.4 0-7zM2250.3 318.3s-6.1-12.4-.4-20.1 52.8-7.6 79-2.4c30.8 6 61.6 17.5 67.9 28.7s2.8 26.5-5.4 28.9-34.3 2.4-34.3 2.4 28.9-6.6 32.4-8.4c5.8-3.1 2.2-20.5-2.8-23.2-13-7.1-40.1-17.2-60.5-20.9-30-5.5-59.9-5.8-67.7-1.5s-8.2 16.5-8.2 16.5zM2307.4 286s45.6 6.2 55.9 10.7 16.5 7.7 25.7 14.7c-7.6-9.1-20.5-19.7-28.4-21.8s-20.1-4.5-27.6-5.9-25.6 2.3-25.6 2.3z"/><ellipse class="st0" cx="1347.2" cy="245.7" rx="24.8" ry="11.6"/><ellipse class="st0" cx="1181.7" cy="190.9" rx="24.8" ry="11.6"/><ellipse transform="rotate(-2.651 1431.21 177.849) scale(.99997)" class="st0" cx="1431.3" cy="177.8" rx="18.4" ry="8.6"/><path class="st0" d="M1774.4 586s17.8 12.6 44.3 12.4 41.6-5.1 52.6-12-1.5-8.3-5-6.2-35.1 9.5-49.3 7.2-35.4-6.9-42.5-9.9-8.3 3.6-.1 8.5zM1784.3 542.2c9.4-7.4 21.1-11.2 33-10.8 20.3.7 32.2 5.6 41.1 12.3s-.5 7.8-3.4 5.7-27.6-9.6-38.2-7.7-26.6 5.8-31.8 8.5-6.6-3.7-.7-8zM2284.2 204.7c-6.1 2.4-23.7-1.6-28-2.6s-21.3-3-21.3-3l-43.5-6.4s-21.4.9-29.9-2.3c-13.2-2-24.8-2.6-29.9-4.4s-22.2-2.6-22.2-2.6l-26.9-4.4-16.2-3.7s18 .3 22.2 1.3 19.2 2.5 19.2 2.5l12-1.9s-13.2-4.5-20-5.9-22.6-3-28.2-3.5-26-4.8-26-4.8l35.9 1.1 37.6 5.4 13.7 1.5-16.5-7.1s22.6 3.4 23.9 3 21.3 3 29.4 5.3 28.1 5.7 29.4 5.7 18.8 2.5 20.9 3.8 52.9 9.6 52.9 9.6l10.1 2.4s3.6 2.7 3.9 4.1c.6 2.2-.2 6-2.5 6.9z"/><path class="st0" d="M2288.4 204.1s-2.1 5.1-3.7 5.8-6.6.4-8.2-.1-8-.6-13.9-2.4c-8.8-.3-13.9-3.4-18.6-3.9-5.2-.1-11.3-.6-11.3-.6l-10-2.1s8 3.4 11 3.9c3.4.6 6.9 1 10.3 1.2 4.1 1.5 16.1 5 19.3 5l13.3 2.4 10 1.8s6.3-7.4 6.8-8.2-.2-5.5-1-8.1c-1.5 1.9-4 5.3-4 5.3zM2243.1 209.7s-12.3-1.2-17.6-3.3c-3.1-1.2-6.1-2.7-8.9-4.5 0 0-10.3.1-16-1.3 4.9 4.1 13.3 3.6 15.6 5s4.9 4.4 13.6 5.3 13.3-1.2 13.3-1.2zM2268.4 187.4l-17.7-2.8-23.1-4.6s-13-2.7-19.3-3.9c6-1 15.6-1.1 19.9 1.2 8.4 1 18.8 2.5 22.3 4.2 7.4 1 17.9 5.9 17.9 5.9z"/><path class="st4" d="M2281.1 196.2l-.4 6.8s-23.6-4.1-31.6-5.3c-17.6-2.6-24-13.1-24-13.1l1.1-7.4c6.4 7.2 15 12 24.5 13.6l30.4 5.4z"/><path class="st1" d="M1564.7 23.2l37.6 3.4-37.7-1.4zM1709.4 31.8l27.6 4-27.8-2zM1681.8 31.8l-40.7-3 40.8 1zM1789.2 40.1l-31.1-2.4 31.2.4zM2004.6 61.3l26.2 5.6-26.6-3.6zM2098.3 76.4l-35.2-5.2 35.4 3.2z"/></g></g></svg>